<?xml version="1.0" standalone="no"?><!DOCTYPE svg PUBLIC "-//W3C//DTD SVG 1.1//EN" "http://www.w3.org/Graphics/SVG/1.1/DTD/svg11.dtd"><svg t="1560417646614" class="icon" style="" viewBox="0 0 1024 1024" version="1.1" xmlns="http://www.w3.org/2000/svg" p-id="3184" xmlns:xlink="http://www.w3.org/1999/xlink" width="64" height="64"><defs><style type="text/css"></style></defs><path d="M323.822177 580.607564l116.331495 0c4.624321 0 8.946766-2.333138 11.484565-6.215562 2.538823-3.869121 2.936889-8.767688 1.083681-13.008268-3.594875-8.205892-5.420453-16.891715-5.420453-25.851784 0-35.676547 29.020964-64.697511 64.697511-64.697511 35.676547 0 64.697511 29.020964 64.697511 64.697511 0 8.93244-1.824555 17.632589-5.433756 25.851784-1.866511 4.239558-1.440815 9.138124 1.083681 13.008268 2.538823 3.883447 6.846942 6.215562 11.484565 6.215562L700.177823 580.607564c7.587815 0 13.721513-6.133697 13.721513-13.721513l0-62.708204c0-7.574512-6.133697-13.721513-13.721513-13.721513l-40.121789 0c-2.922563-9.591449-6.765077-18.853393-11.512195-27.731598l28.376281-28.389584c5.365194-5.365194 5.365194-14.037714 0-19.401886l-44.348044-44.348044c-5.145184-5.145184-14.256702-5.145184-19.402909 0l-28.376281 28.389584c-8.863878-4.748141-18.125823-8.589632-27.717272-11.512195L557.075615 347.340823c0-7.574512-6.133697-13.721513-13.721513-13.721513l-62.73481 0c-7.574512 0-13.721513 6.147-13.721513 13.721513l0 40.108486c-9.578146 2.922563-18.84009 6.765077-27.717272 11.512195l-28.376281-28.376281c-5.365194-5.365194-14.037714-5.365194-19.401886 0l-44.36237 44.348044c-2.579755 2.579755-4.02057 6.065136-4.02057 9.700943 0 3.635807 1.440815 7.135514 4.02057 9.700943l28.389584 28.376281c-4.748141 8.863878-8.603959 18.140149-11.512195 27.731598l-40.108486 0c-7.574512 0-13.721513 6.147-13.721513 13.721513l0 62.721507C310.100664 574.47489 316.233338 580.607564 323.822177 580.607564zM337.543689 517.900384l36.924981 0c6.407943 0 11.965519-4.431939 13.378705-10.67513 3.170203-13.954827 8.67252-27.209712 16.369829-39.421848 3.416819-5.433756 2.620687-12.486382-1.907443-17.014512l-26.139334-26.139334 24.946159-24.946159 26.139334 26.139334c4.52813 4.52813 11.595083 5.337565 17.014512 1.907443 12.212136-7.684006 25.467021-13.186324 39.408545-16.356526 6.243191-1.427512 10.67513-6.970762 10.67513-13.378705l0-36.95261 35.291784 0 0 36.938284c0 6.407943 4.431939 11.965519 10.67513 13.378705 13.941524 3.170203 27.196409 8.685823 39.394219 16.369829 5.406127 3.416819 12.500709 2.620687 17.014512-1.907443l26.139334-26.15366 24.946159 24.946159-26.139334 26.15366c-4.52813 4.52813-5.324262 11.595083-1.907443 17.014512 7.684006 12.198833 13.186324 25.453718 16.3422 39.408545 1.427512 6.243191 6.984065 10.67513 13.392008 10.67513l36.938284 0 0 35.278481-84.030835 0c1.13894-5.776563 1.701758-11.676947 1.701758-17.632589 0.027629-50.811246-41.315988-92.140537-92.112907-92.140537s-92.127234 41.329291-92.127234 92.140537c0 5.968945 0.576121 11.855002 1.701758 17.632589l-84.017532 0 0-35.264155L337.543689 517.900384z" p-id="3185"></path><path d="M841.318354 210.124671 182.681646 210.124671c-15.149025 0-27.443026 12.295024-27.443026 27.443026l0 439.09148c0 15.149025 12.295024 27.443026 27.443026 27.443026l301.875329 0 0 54.886051-82.3301 0c-15.149025 0-27.443026 12.295024-27.443026 27.443026s12.295024 27.443026 27.443026 27.443026l219.545228 0c15.149025 0 27.443026-12.295024 27.443026-27.443026s-12.295024-27.443026-27.443026-27.443026l-82.3301 0 0-54.886051 301.875329 0c15.149025 0 27.443026-12.295024 27.443026-27.443026L868.760356 237.567697C868.76138 222.419695 856.467379 210.124671 841.318354 210.124671zM813.875329 649.216151l-603.750657 0L210.124671 265.010723l603.750657 0L813.875329 649.216151z" p-id="3186"></path></svg>