<?xml version="1.0" standalone="no"?><!DOCTYPE svg PUBLIC "-//W3C//DTD SVG 1.1//EN" "http://www.w3.org/Graphics/SVG/1.1/DTD/svg11.dtd"><svg t="1559727632953" class="icon" style="" viewBox="0 0 1024 1024" version="1.1" xmlns="http://www.w3.org/2000/svg" p-id="7180" xmlns:xlink="http://www.w3.org/1999/xlink" width="400" height="400"><defs><style type="text/css"></style></defs><path d="M511.23315 512.76685m-511.23315 0a511.23315 511.23315 0 1 0 1022.466301 0 511.23315 511.23315 0 1 0-1022.466301 0Z" fill="#9CC715" p-id="7181"></path><path d="M710.869695 281.178233l-127.808287 221.61957h97.134298a27.350974 27.350974 0 0 1 27.350974 27.350974 27.350974 27.350974 0 0 1-27.350974 27.350973H547.019471v70.550175h133.943085a27.350974 27.350974 0 0 1 27.350974 27.350974 27.350974 27.350974 0 0 1-27.350974 27.350973H547.019471v105.314029a27.350974 27.350974 0 0 1-27.350974 27.350974h-16.359461a27.350974 27.350974 0 0 1-27.350973-27.350974v-105.314029h-135.476785a27.350974 27.350974 0 0 1-27.350973-27.350973 27.350974 27.350974 0 0 1 27.350973-27.350974h135.476785v-70.550175h-135.476785a27.350974 27.350974 0 0 1-27.350973-27.350973 27.350974 27.350974 0 0 1 27.350973-27.350974h97.901148l-127.808287-221.61957a27.350974 27.350974 0 0 1 23.772341-40.898652 61.603595 61.603595 0 0 1 53.935098 32.207688l122.951572 222.38642 122.44034-222.642036a61.859211 61.859211 0 0 1 53.679481-31.952072 27.350974 27.350974 0 0 1 23.516724 40.898652z" fill="#FFFFFF" p-id="7182"></path></svg>