<?xml version="1.0" standalone="no"?><!DOCTYPE svg PUBLIC "-//W3C//DTD SVG 1.1//EN" "http://www.w3.org/Graphics/SVG/1.1/DTD/svg11.dtd"><svg t="1562145121867" class="icon" viewBox="0 0 1024 1024" version="1.1" xmlns="http://www.w3.org/2000/svg" p-id="11205" xmlns:xlink="http://www.w3.org/1999/xlink" width="500" height="500"><defs><style type="text/css"></style></defs><path d="M580.03456 557.17888c-74.97728-63.77472-92.42624-53.16608-92.42624-53.16608-31.29344 17.34656-66.80576 28.01664-105.12384 28.01664-41.51296 0-79.85152-12.1856-112.98816-32.21504C135.20896 562.64704 35.14368 733.94176 20.48 941.71136l724.0704 2.70336C733.63456 781.94688 655.03232 620.89216 580.03456 557.17888zM382.48448 894.976l-53.69856-55.56224 48.68096-254.21824L350.208 547.40992c6.9632-9.54368 57.05728-10.4448 64.6144 0l-27.27936 37.80608L436.224 839.41376 382.48448 894.976z" p-id="11206" fill="#3CB371"></path><path d="M269.5168 485.96992c33.11616 20.04992 71.45472 32.21504 112.98816 32.21504 38.31808 0 73.8304-10.67008 105.12384-27.9552 67.76832-37.25312 114.15552-108.544 114.15552-191.34464 0-121.1392-98.16064-219.29984-219.27936-219.29984-121.1392 0-219.32032 98.16064-219.32032 219.29984C163.16416 378.49088 206.00832 447.56992 269.5168 485.96992z" p-id="11207" fill="#3CB371"></path><path d="M892.12928 682.16832c-50.76992-43.13088-62.54592-35.9424-62.54592-35.9424-21.2992 11.75552-45.2608 18.96448-71.18848 18.96448-28.11904 0-54.12864-8.27392-76.47232-21.83168-90.99264 42.53696-158.72 158.5152-168.71424 299.2128L1003.52 944.41472C996.20864 834.43712 942.94016 725.36064 892.12928 682.16832zM758.39488 910.92992l-36.39296-37.62176 32.93184-172.07296-18.45248-25.68192c4.73088-6.41024 38.64576-7.08608 43.76576 0l-18.41152 25.68192 32.91136 172.07296L758.39488 910.92992z" p-id="11208" fill="#3CB371"></path><path d="M681.92256 633.97888c22.34368 13.55776 48.35328 21.83168 76.47232 21.83168 25.92768 0 49.88928-7.24992 71.18848-18.96448 45.8752-25.1904 77.312-73.50272 77.312-129.536 0-82.08384-66.51904-148.50048-148.50048-148.50048-82.0224 0-148.50048 66.41664-148.50048 148.50048C609.8944 561.19296 638.83264 607.9488 681.92256 633.97888z" p-id="11209" fill="#3CB371"></path></svg>