<?xml version="1.0" standalone="no"?><!DOCTYPE svg PUBLIC "-//W3C//DTD SVG 1.1//EN" "http://www.w3.org/Graphics/SVG/1.1/DTD/svg11.dtd"><svg t="1559639415144" class="icon" style="" viewBox="0 0 1024 1024" version="1.1" xmlns="http://www.w3.org/2000/svg" p-id="3067" xmlns:xlink="http://www.w3.org/1999/xlink" width="400" height="400"><defs><style type="text/css"></style></defs><path d="M512 450.048A216.576 216.576 0 0 0 716.8 225.28 216.576 216.576 0 0 0 512 0a216.576 216.576 0 0 0-204.8 224.768A216.576 216.576 0 0 0 512 449.536zM487.936 778.24L678.4 503.296A650.24 650.24 0 0 0 512 481.28a531.968 531.968 0 0 0-242.688 47.104s-15.36 0-45.568 51.2c-46.08 76.288-117.248 187.904-137.728 225.28-14.848 24.576-51.2 73.216-27.648 124.928A492.544 492.544 0 0 0 116.736 1024h114.176a263.68 263.68 0 0 1 256-245.76z m450.048 25.6c-35.328-61.44-113.152-185.856-119.296-197.12s-33.792-70.656-81.92-86.016L716.8 514.56 534.528 778.24A265.216 265.216 0 0 1 795.136 1024h102.4s11.264 0 65.536-99.328c20.48-51.2 0-75.776-26.624-120.832zM512 843.264c-120.32 0-217.6 78.336-217.6 180.736h435.2c0-102.4-97.28-180.736-217.6-180.736z" p-id="3068"></path></svg>