<?xml version="1.0" standalone="no"?><!DOCTYPE svg PUBLIC "-//W3C//DTD SVG 1.1//EN" "http://www.w3.org/Graphics/SVG/1.1/DTD/svg11.dtd"><svg t="1560823248631" class="icon" style="" viewBox="0 0 1024 1024" version="1.1" xmlns="http://www.w3.org/2000/svg" p-id="3895" xmlns:xlink="http://www.w3.org/1999/xlink" width="500" height="500"><defs><style type="text/css"></style></defs><path d="M606.21875 759.125l-7.40625 7.5c63.9375 9.5625 107.8125 29.4375 107.8125 52.40625 0 32.34375-86.8125 58.5-193.875 58.5s-193.96875-26.25-193.96875-58.5c0-23.15625 44.625-43.125 109.3125-52.59375l-7.40625-7.40625c-123.09375 11.34375-212.34375 44.71875-212.34375 84.1875 0 48.75 136.3125 88.3125 304.40625 88.3125s304.3125-39.5625 304.3125-88.3125c0-39.28125-88.5-72.5625-210.84375-84.09375z m0 0M531.3125 299.5625c-0.5625 1.3125-1.21875 2.625-1.96875 3.75 8.4375 14.71875 19.5 27.46875 33.28125 38.25 16.5-12.46875 29.0625-26.4375 37.875-41.90625h-69.1875z" fill="#d81e06" p-id="3896"></path><path d="M816.3125 396.3125c0-168.09375-136.3125-304.40625-304.40625-304.40625-168.09375 0-304.40625 136.3125-304.40625 304.40625 0 83.71875 33.84375 159.46875 88.5 214.5v0.09375l216.75 216.65625 215.34375-216.75v-0.09375c54.46875-55.03125 88.21875-130.78125 88.21875-214.40625zM414.125 240.125l35.34375 10.59375c-14.34375 30.09375-27.75 56.25-40.21875 78.375 4.96875-0.1875 11.625-0.46875 19.78125-0.84375 5.53125-11.0625 11.53125-23.34375 17.8125-36.75l32.4375 13.5c-17.4375 32.71875-35.8125 65.8125-55.125 99.09375 13.59375-1.6875 28.03125-3.65625 43.40625-5.71875-1.6875 9.9375-2.90625 21.46875-3.46875 34.5-29.90625 1.875-55.59375 5.34375-77.25 10.3125L377.09375 410.75c9.5625-9.375 21.1875-26.0625 34.78125-49.96875-10.5 0.75-20.8125 1.59375-30.75 2.625L371.375 331.8125c9.9375-11.71875 24.1875-42.28125 42.75-91.6875z m56.53125 253.40625c-36.375 5.90625-67.40625 11.4375-93.09375 16.40625l-5.71875-40.21875c37.3125-5.53125 70.6875-10.78125 99.9375-15.84375-0.84375 16.03125-1.3125 29.25-1.125 39.65625z m153.46875 29.25c-48.65625-10.3125-96.46875-19.875-143.625-28.6875l9.46875-35.0625c51.28125 8.8125 99 17.625 143.0625 26.4375l-8.90625 37.3125z m-114.65625-84.1875l8.90625-31.3125c43.875 7.6875 77.4375 13.78125 100.78125 18.375l-8.34375 33.28125c-32.71875-7.03125-66.46875-13.78125-101.34375-20.34375z m135.84375-21.75c-33.28125-9.1875-60.9375-20.625-82.6875-34.21875-22.78125 14.15625-49.3125 25.875-79.59375 35.0625-5.15625-11.90625-10.96875-23.25-17.53125-34.21875 25.875-6.46875 48.46875-14.53125 67.78125-24.09375-8.4375-8.4375-16.21875-17.625-23.25-27.5625-6.65625 9-13.59375 17.625-20.71875 25.875-7.6875-8.25-15.9375-16.40625-24.75-24.375 25.875-29.0625 45.1875-60.28125 58.03125-93.65625l36.46875 6.5625c-3.28125 7.125-6.46875 13.96875-9.75 20.71875h91.59375v30.75c-11.90625 22.96875-27.75 43.6875-47.71875 62.0625 19.125 8.8125 41.34375 15.5625 66.65625 20.4375-4.59375 11.15625-9.5625 23.4375-14.53125 36.65625z" fill="#d81e06" p-id="3897"></path></svg>