<?xml version="1.0" standalone="no"?><!DOCTYPE svg PUBLIC "-//W3C//DTD SVG 1.1//EN" "http://www.w3.org/Graphics/SVG/1.1/DTD/svg11.dtd"><svg t="1562143717026" class="icon" viewBox="0 0 1024 1024" version="1.1" xmlns="http://www.w3.org/2000/svg" p-id="7861" xmlns:xlink="http://www.w3.org/1999/xlink" width="500" height="500"><defs><style type="text/css"></style></defs><path d="M368.64 320c0-77.312 62.464-139.776 139.776-139.776 77.312 0 139.776 62.464 139.776 139.776 0 77.312-62.464 139.776-139.776 139.776-36.864 0-72.704-14.848-98.816-40.96-26.112-26.112-40.96-61.44-40.96-98.816zM123.904 390.144c0 212.48 289.28 629.248 384.512 629.248 95.232 0 384.512-416.768 384.512-629.248S720.896 5.632 508.416 5.632c-211.968 0-384.512 172.032-384.512 384.512z m0 0" fill="#f1440c" p-id="7862"></path></svg>