<?xml version="1.0" standalone="no"?><!DOCTYPE svg PUBLIC "-//W3C//DTD SVG 1.1//EN" "http://www.w3.org/Graphics/SVG/1.1/DTD/svg11.dtd"><svg t="1568271352180" class="icon" viewBox="0 0 1024 1024" version="1.1" xmlns="http://www.w3.org/2000/svg" p-id="1165" xmlns:xlink="http://www.w3.org/1999/xlink" width="200" height="200"><defs><style type="text/css"></style></defs><path d="M224 0C102.4 0 0 102.4 0 224S102.4 448 224 448H448V224C448 102.4 345.6 0 224 0zM384 384H224C134.4 384 64 313.6 64 224S134.4 64 224 64C307.2 64 377.6 134.4 384 217.6V384zM448 736V512H224C102.4 512 0 614.4 0 736S102.4 960 224 960 448 857.6 448 736z m-64 6.4C377.6 825.6 307.2 896 224 896 134.4 896 64 825.6 64 736S134.4 576 224 576H384v166.4z" fill="#bfbfbf" p-id="1166"></path><path d="M512 224V448h224C857.6 448 960 345.6 960 224S857.6 0 736 0 512 102.4 512 224z m64-6.4C582.4 134.4 652.8 64 736 64 825.6 64 896 134.4 896 224S825.6 384 736 384H576V217.6zM736 960c121.6 0 224-102.4 224-224S857.6 512 736 512H512v224c0 121.6 102.4 224 224 224zM576 576h160c89.6 0 160 70.4 160 160S825.6 896 736 896c-83.2 0-153.6-70.4-160-153.6V576z" fill="#bfbfbf" p-id="1167"></path></svg>