<?xml version="1.0" standalone="no"?><!DOCTYPE svg PUBLIC "-//W3C//DTD SVG 1.1//EN" "http://www.w3.org/Graphics/SVG/1.1/DTD/svg11.dtd"><svg t="1560742722880" class="icon" style="" viewBox="0 0 1024 1024" version="1.1" xmlns="http://www.w3.org/2000/svg" p-id="2648" xmlns:xlink="http://www.w3.org/1999/xlink" width="64" height="64"><defs><style type="text/css"></style></defs><path d="M921.6 768.6144V261.12c59.1872-14.9504 94.8224-70.656 89.7024-131.4816-5.12-60.8256-53.6576-108.7488-114.2784-113.664-60.8256-4.9152-116.1216 30.9248-130.8672 89.9072H259.8912C245.76 50.9952 196.1984 16.5888 139.6736 16.5888 78.2336 18.432 27.4432 64.7168 19.8656 125.5424 12.0832 186.368 45.4656 243.9168 104.448 261.12v509.3376c-54.4768 14.336-88.4736 63.488-88.8832 119.808 1.8432 61.44 47.9232 112.2304 108.7488 120.0128 60.8256 7.7824 118.3744-25.8048 135.3728-84.7872H765.952c16.9984 58.9824 74.5472 92.7744 135.5776 84.992 61.0304-7.7824 107.1104-58.7776 108.7488-120.4224 0.6144-56.9344-33.3824-106.9056-88.6784-121.4464zM828.2112 139.0592c0-32.9728 26.4192-59.8016 59.392-60.2112 24.3712 0 46.2848 14.5408 55.5008 37.0688 9.4208 22.528 4.096 48.3328-12.9024 65.536-17.2032 17.2032-43.008 22.3232-65.536 13.1072s-37.0688-31.1296-37.0688-55.5008h0.6144z m22.9376 122.0608v220.5696l-304.7424-305.152h219.7504c11.4688 43.4176 41.5744 73.3184 84.992 84.5824zM436.224 176.5376c0.8192 1.024 1.6384 2.048 2.6624 3.072L851.1488 591.872v178.5856c-7.7824 2.048-15.36 4.7104-22.3232 7.9872l-577.536-578.1504c3.4816-7.3728 6.5536-15.1552 8.6016-23.552H436.224zM78.4384 139.0592h0.6144c0-32.9728 26.4192-59.8016 59.392-60.2112 24.3712 0 46.2848 14.5408 55.5008 37.0688 9.4208 22.528 4.096 48.3328-12.9024 65.536-17.2032 17.2032-43.008 22.3232-65.536 13.1072-22.3232-9.216-37.0688-31.1296-37.0688-55.5008z m102.8096 793.6c-17.2032 17.2032-43.008 22.3232-65.536 13.1072s-37.0688-31.1296-37.0688-55.5008h0.6144c0-32.9728 26.4192-59.8016 59.392-60.2112 24.3712 0 46.2848 14.5408 55.5008 37.0688 9.216 22.528 4.096 48.3328-12.9024 65.536z m77.0048-77.6192l1.8432-1.8432c-11.6736-43.4176-41.5744-73.1136-84.992-84.5824V556.4416l298.8032 298.5984H258.2528z m325.4272 0L174.8992 445.6448v-184.5248c6.9632-1.8432 13.5168-4.096 19.8656-6.9632 0.4096 0.4096 0.8192 0.8192 1.2288 1.4336l577.9456 577.7408c-3.072 6.7584-5.7344 13.9264-7.7824 21.504H583.68z m346.5216 77.6192c-17.2032 17.2032-43.008 22.3232-65.536 13.1072s-37.0688-31.1296-37.0688-55.5008h0.6144c0-32.9728 26.4192-59.8016 59.392-60.2112 24.3712 0 46.2848 14.5408 55.5008 37.0688 9.4208 22.528 4.3008 48.3328-12.9024 65.536z" p-id="2649"></path></svg>