<?xml version="1.0" standalone="no"?><!DOCTYPE svg PUBLIC "-//W3C//DTD SVG 1.1//EN" "http://www.w3.org/Graphics/SVG/1.1/DTD/svg11.dtd"><svg t="1560678093888" class="icon" style="" viewBox="0 0 1024 1024" version="1.1" xmlns="http://www.w3.org/2000/svg" p-id="3371" xmlns:xlink="http://www.w3.org/1999/xlink" width="64" height="64"><defs><style type="text/css"></style></defs><path d="M455.68 599.04h212.48v25.6h-212.48zM455.68 668.16h212.48v23.04h-212.48z" p-id="3372"></path><path d="M839.68 194.56H279.04c-43.52 0-76.8 35.84-76.8 76.8v560.64c0 43.52 35.84 76.8 76.8 76.8h560.64c43.52 0 76.8-35.84 76.8-76.8V271.36c0-43.52-33.28-76.8-76.8-76.8zM768 448h-192c-2.56 10.24-5.12 20.48-7.68 33.28h161.28v281.6h-61.44v-25.6h-212.48v25.6h-61.44v-281.6h112.64c2.56-10.24 5.12-20.48 5.12-33.28h-161.28v-51.2h107.52c-7.68-12.8-20.48-25.6-33.28-38.4l56.32-15.36c17.92 15.36 30.72 30.72 43.52 46.08l-33.28 10.24h94.72c15.36-17.92 30.72-38.4 46.08-58.88l58.88 17.92c-12.8 12.8-25.6 25.6-35.84 38.4H768v51.2z" p-id="3373"></path><path d="M455.68 529.92h212.48v25.6h-212.48z" p-id="3374"></path></svg>