<?xml version="1.0" standalone="no"?><!DOCTYPE svg PUBLIC "-//W3C//DTD SVG 1.1//EN" "http://www.w3.org/Graphics/SVG/1.1/DTD/svg11.dtd"><svg t="1562410786064" class="icon" viewBox="0 0 1024 1024" version="1.1" xmlns="http://www.w3.org/2000/svg" p-id="3534" xmlns:xlink="http://www.w3.org/1999/xlink" width="64" height="64"><defs><style type="text/css"></style></defs><path d="M656.7936 322.64192h-126.73024v106.94656h126.73024V322.64192z m-76.10368 97.6896l-26.4192-16.71168c16.13824-20.80768 31.08864-43.25376 44.89216-67.29728l31.25248 17.6128a1932.24704 1932.24704 0 0 1-49.72544 66.39616zM368.14848 429.62944h126.73024V322.64192H368.14848v106.98752z m49.27488-92.40576c21.7088 23.7568 37.39648 43.66336 47.06304 59.84256l-28.59008 20.23424a647.12704 647.12704 0 0 0-43.54048-62.95552l25.06752-17.12128z" p-id="3535"></path><path d="M880.64 102.4h-737.28a40.96 40.96 0 0 0-40.96 40.96v737.28a40.96 40.96 0 0 0 40.96 40.96h737.28a40.96 40.96 0 0 0 40.96-40.96v-737.28a40.96 40.96 0 0 0-40.96-40.96zM330.752 708.07552l-32.11264-14.09024c16.9984-26.66496 31.66208-54.6816 43.99104-84.00896l32.11264 12.73856c-15.81056 34.65216-30.5152 63.0784-43.99104 85.36064z m122.30656-4.38272a1056.64512 1056.64512 0 0 0-35.18464-76.55424L446.464 614.4a1032.192 1032.192 0 0 1 38.7072 73.44128l-32.11264 15.85152z m110.01856-3.03104a875.60192 875.60192 0 0 0-40.05888-75.28448l27.72992-14.49984c15.23712 22.28224 29.77792 46.32576 43.54048 72.17152l-31.21152 17.6128z m134.18496 7.04512a2026.82368 2026.82368 0 0 0-65.1264-80.56832l26.4192-19.37408a2253.33248 2253.33248 0 0 1 67.33824 76.55424l-28.63104 23.38816z m31.25248-103.87456H295.97696v-29.53216h198.8608v-43.13088H329.89184v-28.99968h164.98688v-43.13088H368.14848v14.09024h-33.01376V293.19168h354.63168v179.93728h-33.01376v-14.09024H530.0224v43.13088h167.64928v29.04064H530.0224v43.13088h198.4512l0.04096 29.4912z" p-id="3536"></path></svg>