<?xml version="1.0" standalone="no"?><!DOCTYPE svg PUBLIC "-//W3C//DTD SVG 1.1//EN" "http://www.w3.org/Graphics/SVG/1.1/DTD/svg11.dtd"><svg t="1560824843924" class="icon" style="" viewBox="0 0 1035 1024" version="1.1" xmlns="http://www.w3.org/2000/svg" p-id="6046" xmlns:xlink="http://www.w3.org/1999/xlink" width="505.37109375" height="500"><defs><style type="text/css"></style></defs><path d="M900.534665 359.179636c9.156525 13.639111 18.497939 27.090747 27.651879 40.729859l1.12097 0.561131c11.022222-17.563152 21.860848-35.12501 32.884363-52.688161 17.00202-25.596121 35.684848-45.587394 45.772283-79.217778 19.618909-65.018828-26.904566-113.221818-88.374303-112.100849-4.295111 0.747313-8.592808 1.494626-13.075394 2.24194-14.760081 4.296404-29.893818 13.639111-38.490505 24.287677-7.098182 8.781576-14.196364 18.12299-18.684121 29.520161-11.583354 28.772848-2.61301 62.029576 9.717656 82.020849 13.825293 21.485899 27.650586 43.159273 41.477172 64.645171z m-13.07798-127.42206c6.164687-19.617616 19.245253-23.540364 37.926788-31.20097 58.854141-0.934788 59.975111 82.394505 5.606142 90.61495-27.651879 4.297697-52.500687-30.827313-43.53293-59.41398z m-613.753535 475.495434c34.190222-47.829333 66.513455-85.569939 86.690909-149.467798 44.841374-142.74198-46.147232-259.887838-185.713778-257.458424-10.83604 4.296404-27.090747 2.801778-37.926788 6.164687-32.509414 10.09002-63.524202 29.33398-82.581979 53.248-16.628364 20.738586-31.762101 41.29099-42.41196 68.569212-24.848808 63.897859-6.725818 131.344808 20.926061 176.558545 31.948283 52.499394 64.645172 103.694222 99.584 153.391839 18.496646 27.279515 36.993293 54.742626 55.489939 82.020848l1.680808 1.119677c11.583354-18.682828 22.980525-37.365657 34.565172-56.051071 16.440889-26.342141 31.760808-53.059232 49.697616-78.095515zM96.583473 467.917576c9.155232-29.332687 30.827313-52.314505 58.29301-63.336728 8.594101-3.550384 19.24396-2.615596 28.959031-6.165979 64.457697-0.559838 119.200323 65.018828 92.109575 134.521535-13.265455 34.377697-39.049051 58.477899-80.338747 65.017535-63.150545 10.276202-118.826667-66.699636-99.022869-130.036363zM949.110019 659.797333c-47.454384-31.013495-94.725172-61.842101-142.179556-92.855596-16.254707-11.21099-32.510707-22.233212-48.765414-33.444202-32.135758-17.561859-64.082747-35.12501-96.219798-52.686868-17.189495-10.088727-37.365657-18.496646-51.004768-32.323233l-1.120969-0.559838c64.082747-13.265455 130.972444-14.200242 198.231919-25.409939 34.562586-3.922747 69.129051-7.846788 103.691636-11.957011v-0.561131c-5.229899-7.099475-20.363636-27.464404-27.651879-31.20097-8.592808 0.747313-17.374384 1.494626-25.969777 2.24194-31.388444 1.868283-62.588121 3.736566-93.977859 5.604848-24.475152 3.736566-49.512727 0.561131-75.29503 4.483879-72.679434 6.913293-145.358869 13.452929-218.035718 20.178748 32.883071 25.222465 65.766141 50.632404 98.463031 75.854868 35.123717 23.354182 73.053091 41.850828 107.055838 66.139798 43.345455 33.815273 86.878384 67.634424 130.225131 101.263515l1.12097 1.682101c-104.62901 6.539636-209.06796 13.265455-313.69697 19.803798l-63.33802 2.801778c-25.782303 3.92404-49.697616 5.04501-73.612929 9.717657-11.583354 1.680808-22.980525 3.362909-34.563879 5.042424-34.191515 57.545697-68.381737 115.091394-102.385778 172.635798l-1.120969 1.682101c116.024889-25.597414 235.972525-44.841374 353.86699-70.812444 63.709091-11.395879 127.605657-22.605576 191.318626-34.004041 90.428768-15.507394 180.856242-31.013495 271.096242-46.334707v-0.561131c-28.772848-18.681535-57.355636-37.551838-86.13107-56.422142z" p-id="6047" fill="#E6A23C"></path></svg>