<svg t="1562145475372" class="icon" viewBox="0 0 1024 1024" version="1.1" xmlns="http://www.w3.org/2000/svg" p-id="18428" width="500" height="500"><path d="M128 891.663h768a128 128 0 0 0 128-128V260.337a128 128 0 0 0-128-128H128a128 128 0 0 0-128 128v503.326a128 128 0 0 0 128 128z m83.426-475.377v281.178c0 31.052-57.706 31.172-57.706 0V334.697c0-21.202 7.59-31.05 22.649-31.834 12.137-0.632 25.058 5.692 38.701 24.245l202.39 275.365V330.15c0-37.256 55.9-37.226 55.9 0v362.767c0 18.1-7.56 26.383-22.65 27.196-13.673 0.723-24.786-6.746-36.261-22.649L211.426 416.286z m292.352 149.625c0-213.233 272.022-212.782 272.022 0 0 206.667-272.022 208.956-272.022 0z m52.555 0c0 128.813 165.587 133.782 165.587 0 0-73.668-40.75-103.695-83.245-102.912-42.496 0.783-82.342 32.406-82.342 102.912z m285.094 97.25c15.872 0 28.822 12.95 28.822 28.822s-12.95 28.823-28.822 28.823-28.823-12.95-28.823-28.823 12.95-28.823 28.823-28.823z" p-id="18429" fill="#1296db"></path></svg>
