<?xml version="1.0" standalone="no"?><!DOCTYPE svg PUBLIC "-//W3C//DTD SVG 1.1//EN" "http://www.w3.org/Graphics/SVG/1.1/DTD/svg11.dtd"><svg t="1560592804641" class="icon" style="" viewBox="0 0 1024 1024" version="1.1" xmlns="http://www.w3.org/2000/svg" p-id="3954" xmlns:xlink="http://www.w3.org/1999/xlink" width="400" height="400"><defs><style type="text/css"></style></defs><path d="M615.64787014 12.58765866h-216.47667051c-26.57637696 0-47.83747853 23.67713585-47.83747851 52.91115048 0 29.23401467 21.26110157 52.9111505 47.83747851 52.91115049h217.92629105c25.12675641 0 46.38785797-23.67713585 46.38785799-52.91115049 0.24160342-29.23401467-21.01949813-52.9111505-47.83747853-52.91115048z m235.32173779 35.27410031h-107.75512838c0.96641369 5.79848225 1.69122401 11.59696451 1.69122398 17.63705017 0 44.45503054-32.37485924 88.42685423-70.78980407 88.42685426H342.63599774c-40.58937571 0-72.72263149-43.73022027-72.72263151-88.18525082 0-6.04008567 0.72481029-11.8385679 1.691224-17.63705018h-109.20474896C74.6977973 48.1033624 52.95348888 97.87366836 52.95348888 169.62988614v711.03888537c0 77.07149317 30.92523864 120.31850659 115.96964491 120.3185066h675.03997478c85.04440628 0 126.35859226-33.82447978 126.35859228-120.07690317V169.38828272c0.48320686-71.7562178-38.17334144-121.52652373-119.35209292-121.52652375z m-110.65436951 702.0995586H270.87977995c-17.39544673 0-34.54929005-21.26110157-34.54929006-38.65654832 0-17.15384331 14.49620561-32.13325576 31.89165237-32.13325578h467.7442345c17.87865358 0.24160342 32.37485924 14.25460219 33.09966948 32.13325578 0.24160342 17.39544673-11.8385679 38.6565483-28.75080782 38.65654832z m1.691224-188.20906957H273.05421079c-17.39544673 0-28.26760097-18.60346385-28.26760094-35.99891061s14.49620561-34.54929005 31.89165236-34.54929005h467.74423446c17.15384331 0 31.89165235 15.94582616 33.09966951 34.54929005 0 17.39544673-18.12025704 35.99891061-35.51570376 35.99891061z m0-193.52434495H273.05421079c-17.39544673 0-28.26760097-18.60346385-28.26760094-35.99891058s14.49620561-34.54929005 31.89165236-34.54929007h467.74423446c17.15384331 0 31.89165235 15.94582616 33.09966951 34.54929007 0 17.39544673-18.12025704 35.99891061-35.51570376 35.99891058z m0 0" p-id="3955"></path></svg>