<?xml version="1.0" standalone="no"?><!DOCTYPE svg PUBLIC "-//W3C//DTD SVG 1.1//EN" "http://www.w3.org/Graphics/SVG/1.1/DTD/svg11.dtd"><svg t="1560860693179" class="icon" style="" viewBox="0 0 1024 1024" version="1.1" xmlns="http://www.w3.org/2000/svg" p-id="3906" xmlns:xlink="http://www.w3.org/1999/xlink" width="64" height="64"><defs><style type="text/css"></style></defs><path d="M832.625 90.125H191.375a101.25 101.25 0 0 0-101.25 101.25v641.25a101.25 101.25 0 0 0 101.25 101.25h641.25a101.25 101.25 0 0 0 101.25-101.25V191.375a101.25 101.25 0 0 0-101.25-101.25zM367.971875 801.119375h-47.5875V553.461875c-28.805625 34.846875-59.079375 65.660625-90.804375 92.356875a1245.105 1245.105 0 0 0-29.43-41.95125c63.871875-51.553125 118.985625-115.846875 165.324375-192.864375H218.931875v-43.84125h171.264375c5.011875-9.399375 9.905625-18.984375 14.715-28.805625h49.4775c-4.809375 9.82125-9.601875 19.40625-14.41125 28.805625h366.339375v43.84125H416.808125a1018.1025 1018.1025 0 0 1-48.853125 78.9075v311.20875z m447.12-158.439375h-164.7v83.295c0 49.275-22.764375 73.895625-68.259375 73.895625a12642.75 12642.75 0 0 1-108.961875-0.624375 999.118125 999.118125 0 0 0-8.13375-50.72625c38.390625 3.34125 73.47375 5.011875 105.19875 5.011875 21.70125 0 32.56875-11.6775 32.56875-35.06625v-75.76875h-188.49375v-43.84125h188.49375v-30.67875l91.42875-58.86H448.128125v-42.575625H771.875v42.575625l-121.483125 77.0175v12.52125h164.7v43.824375z m0-351.928125h-162.81v45.714375h-47.5875v-45.714375H430.595v38.829375h-47.5875v-38.829375H217.683125V246.9275h165.324375V191.189375h47.5875v55.738125h174.0825v-56.3625h47.5875v56.3625h162.81v43.824375z" p-id="3907"></path></svg>