<?xml version="1.0" standalone="no"?><!DOCTYPE svg PUBLIC "-//W3C//DTD SVG 1.1//EN" "http://www.w3.org/Graphics/SVG/1.1/DTD/svg11.dtd"><svg t="1564624570609" class="icon" viewBox="0 0 1024 1024" version="1.1" xmlns="http://www.w3.org/2000/svg" p-id="2873" xmlns:xlink="http://www.w3.org/1999/xlink" width="64" height="64"><defs><style type="text/css"></style></defs><path d="M796.8 67.4H226.5c-52.5 0-95.1 42.8-95.1 95.1v95.1c0 15.3 11.1 28.5 26.1 31.2l352.4 63.4c1.9 0.3 3.8 0.5 5.6 0.5 1.9 0 3.8-0.2 5.8-0.5L866 288.8c15-2.7 25.9-15.8 25.9-31.2v-95.1c0-52.5-42.8-95.1-95.1-95.1z m31.5 163.8l-312.9 57.6-320.7-57.6v-68.7c0-17.6 14.3-31.7 31.7-31.7h570.3c17.6 0 31.7 14.3 31.7 31.7v68.7zM860.2 352.7c-17.6 0-31.7 14.1-31.7 31.7v475.3c0 17.6-14.1 31.7-31.7 31.7H226.3c-17.6 0-31.7-14.1-31.7-31.7V384.4c0-17.6-14.1-31.7-31.7-31.7s-31.7 14.1-31.7 31.7v475.1c0 52.5 42.8 95.1 95.1 95.1h570.4c52.3 0 94.9-42.6 95.1-94.9V384.4c0.1-17.5-14.1-31.7-31.6-31.7z" p-id="2874"></path><path d="M631.3 457.2c-12.1-12.6-32.2-12.8-44.8-0.7l-75.5 73-72.6-72.5c-12.4-12.4-32.6-12.4-44.8 0-12.4 12.4-12.3 32.2 0 44.7l73.3 72.9h-50.6c-17.6 0-31.7 14.1-31.7 31.7s14.1 31.7 31.7 31.7h63.6v31.7h-63.6c-17.6 0-31.7 14.1-31.7 31.7s14.1 31.7 31.7 31.7h63.6v63.7c0 17.6 14.1 31.7 31.7 31.7s31.7-14.1 31.7-31.7v-63.7h63.2c17.6 0 31.7-14.1 31.7-31.7s-14.1-31.7-31.7-31.7h-63.2v-31.9h63.2c17.6 0 31.7-14.1 31.7-31.7s-14.1-31.7-31.7-31.7h-51.3l75.3-72.6c12.5-12 12.9-32.2 0.8-44.6z" p-id="2875"></path></svg>