<?xml version="1.0" standalone="no"?><!DOCTYPE svg PUBLIC "-//W3C//DTD SVG 1.1//EN" "http://www.w3.org/Graphics/SVG/1.1/DTD/svg11.dtd"><svg t="1562139767301" class="icon" viewBox="0 0 1195 1024" version="1.1" xmlns="http://www.w3.org/2000/svg" p-id="4959" xmlns:xlink="http://www.w3.org/1999/xlink" width="583.49609375" height="500"><defs><style type="text/css"></style></defs><path d="M818.438613 833.390351c-67.268818 48.583146-145.749438 71.006752-224.230058 71.006751h-41.109277c-7.473869 0-14.947737-3.736934-22.422606-3.736934-3.736934 0-11.211803-3.737934-14.948738-3.737934-7.473869 0-14.948737-3.736934-22.422605-7.473869-3.736934 0-7.474869-3.736934-11.211803-3.736934-7.473869-3.737934-18.685672-7.474869-26.15954-11.211803-3.737934 0-3.737934 0-7.474869-3.736934-11.211803-3.737934-18.685672-7.474869-29.897475-14.949738-33.634409-18.684672-59.793949-41.108277-85.954489-67.268817-7.473869-7.473869-14.948737-14.947737-22.422605-26.15954 0-3.736934-3.736934-3.736934-3.736935-7.473869-52.32108-67.268818-82.218555-149.487372-82.218555-242.91573h89.692424c3.736934 0 3.736934 0 7.473868-3.736934v-7.474869l-149.486372-227.965993-3.736934-3.737934c-14.948737 7.474869-18.685672 11.211803-18.685672 11.211803L0 508.257066v7.474868c0 3.736934 3.736934 3.736934 7.473869 3.736935h89.692423c0 108.378095 33.634409 205.544387 89.691423 287.761941 0 0 0 3.736934 3.737935 3.736935 7.473869 7.474869 11.210803 14.948737 18.685671 22.422606 3.736934 3.737934 3.736934 7.474869 7.473869 7.474868 7.474869 11.211803 18.685672 22.422606 29.897474 33.634409 0 0 0 3.736934 3.736935 3.736934 33.634409 33.634409 71.005752 63.531883 112.115029 85.954489 0 0 3.736934 0 3.736934 3.737935 11.211803 7.473869 22.423606 11.210803 37.371343 18.685671 3.737934 0 7.474869 3.736934 7.474869 3.736934l33.634409 11.211803c3.736934 0 11.211803 3.736934 14.948737 3.736935 11.211803 3.736934 18.685672 3.736934 29.897474 7.473868 7.473869 0 11.210803 3.737934 18.685672 3.737935h7.473868c7.474869 0 18.685672 3.736934 29.897475 3.736934h11.211803c14.948737 0 33.634409 3.736934 48.583146 3.736934 100.903226 0 201.806453-29.897474 287.760942-93.428357 26.15954-18.686672 33.634409-56.059015 14.948737-85.95549-26.15954-22.422606-63.531883-29.897474-89.691424-11.211802M1102.462621 515.731934c0-108.378095-33.634409-205.543387-89.692424-287.760941 0 0 0-3.736934-3.736934-3.736935-7.473869-11.211803-14.948737-18.686672-22.422606-29.897474 0 0 0-3.736934-3.736934-3.736934-52.32108-63.531883-115.852964-112.115029-186.858715-142.012504-3.736934 0-3.736934 0-7.473869-3.736934-11.211803-3.737934-22.423606-7.474869-33.634409-14.949738-3.737934 0-7.474869-3.735934-11.211803-3.735934-11.211803-3.737934-22.422606-7.474869-29.897474-7.474869-7.473869 0-11.210803-3.736934-18.685672-3.736934-3.736934 0-7.473869 0-7.473868-3.736934-7.474869 0-14.949737-3.737934-22.423606-3.737934-3.736934 0-11.210803 0-14.948737-3.736935-14.948737 0-26.15954 0-41.109278-3.736934h-7.473868c-100.903226 0-201.806453 29.897474-287.760942 93.428358-29.897474 26.16054-37.371343 63.532883-18.685672 89.692423 18.685672 26.15954 56.057015 33.634409 82.217555 14.948737 67.268818-48.583146 142.011504-71.005752 220.492124-71.005752H642.791701c7.473869 0 18.685672 3.736934 26.15954 3.736935 3.737934 0 7.474869 0 11.211803 3.736934 7.474869 3.736934 18.685672 3.736934 26.15954 7.474869 3.737934 0 3.737934 0 7.474869 3.736934 11.211803 7.473869 22.423606 11.211803 33.634409 14.948737h3.736934c56.058015 26.15954 104.641161 63.531883 145.749438 108.378095 52.32008 67.268818 85.955489 153.223307 85.955489 246.651664h-89.692423c-3.736934 0-3.736934 0-7.473869 3.736935v7.474868l149.486372 227.965993 3.736935 3.737934c3.736934 0 3.736934 0 3.736934-3.736934l149.487372-227.966993v-7.474868c0-3.736934-3.737934-3.736934-7.474868-3.736935h-82.218555z m0 0" p-id="4960"></path></svg>