<?xml version="1.0" standalone="no"?><!DOCTYPE svg PUBLIC "-//W3C//DTD SVG 1.1//EN" "http://www.w3.org/Graphics/SVG/1.1/DTD/svg11.dtd"><svg t="1560171237279" class="icon" style="" viewBox="0 0 1024 1024" version="1.1" xmlns="http://www.w3.org/2000/svg" p-id="5176" xmlns:xlink="http://www.w3.org/1999/xlink" width="64" height="64"><defs><style type="text/css"></style></defs><path d="M664.9 752.5c-40.8 0-73.9-35.3-73.9-78.7 0-43.4 33.2-78.7 73.9-78.7 40.8 0 73.9 35.3 73.9 78.7 0 43.4-33.2 78.7-73.9 78.7m0-130.6c-26.9 0-48.8 23.3-48.8 51.9 0 28.6 21.9 51.9 48.8 51.9s48.8-23.3 48.8-51.9-21.9-51.9-48.8-51.9M400.3 469.8c6.3 0 12.5 6.3 12.5 12.5s-6.3 12.5-12.5 12.5h-62.6v47c0 6.3-6.3 12.5-12.5 12.5s-12.5-6.3-12.5-12.5v-47h-62.6c-6.3 0-12.5-6.3-12.5-12.5s6.3-12.5 12.5-12.5h62.6v-40.7h-62.6c-6.3 0-12.5-6.3-12.5-12.5s6.3-12.5 12.5-12.5h53.2l-53.2-106.5c-3.1-6.3 0-12.5 6.3-15.7 6.3-3.1 12.5 0 15.7 6.3l53.2 106.5 53.2-106.5c3.1-6.3 12.5-9.4 15.7-6.3 6.3 3.1 9.4 9.4 6.3 15.7L347 404.1h53.2c6.3 0 12.5 6.3 12.5 12.5s-6.3 12.5-12.5 12.5h-62.6v40.7h62.7z" fill="" p-id="5177"></path><path d="M721.7 888.5c-7.8 0-15.3-3.4-20.2-9.1-6.6-7.8-27.7-27.9-44.9-27.9-17.1 0-38.5 20.3-44.6 27.4-4.9 5.6-12.4 9-20 9-3.7 0-7.1-0.7-10.3-2.2l-0.6-0.3-52.4-31.2-0.5-0.4c-9.5-7.1-13.2-21-8.4-32.3 0-0.1 4.8-11.9 4.8-22.6 0-32.6-24.9-59.1-55.5-59.1H466.9c-8.8 0-15.9-8.3-18.2-21.1-0.2-1-4.5-25.4-4.5-44.5 0-19.2 4.3-43.5 4.5-44.5 2.3-13 9.6-21.3 18.5-21.1h1.9c30.6 0 55.5-26.5 55.5-59.1 0-10.7-4.8-22.5-4.8-22.6-4.7-11.3-1.1-25.2 8.5-32.3l0.5-0.4 55.3-32.3 0.6-0.3c3.1-1.4 6.5-2.1 10.1-2.1 7.7 0 15.2 3.3 20.1 8.8 6.5 7.3 27.2 26.2 43.9 26.2 16.6 0 37.1-18.6 43.6-25.7 4.9-5.4 12.3-8.6 19.9-8.6 3.7 0 7.2 0.7 10.3 2.2l0.6 0.3 53.4 31.6 0.5 0.4c9.5 7.1 13.2 21 8.5 32.3 0 0.1-4.8 11.9-4.8 22.6 0 32.6 24.9 59.1 55.5 59.1h1.9c8.9-0.2 16.2 8.1 18.5 21.1 0.2 1 4.5 25.4 4.5 44.5 0 19.2-4.3 43.5-4.5 44.5-2.3 13-9.6 21.3-18.5 21.1h-1.9c-30.6 0-55.5 26.5-55.5 59.1 0 10.7 4.8 22.5 4.8 22.6 4.7 11.3 1.1 25.2-8.5 32.3l-0.5 0.4-54.3 31.9-0.6 0.3c-3 1.3-6.4 2-10 2m-1.6-27.2c0.2 0.2 0.9 0.5 1.6 0.5h0.1l50.7-29.8c-1.2-3-6.8-17.7-6.8-33 0-45.8 33.9-83.4 76.4-85.7 0.6-3.6 3.9-23.8 3.9-39s-3.3-35.4-3.9-39c-42.5-2.4-76.4-39.9-76.4-85.7 0-15.3 5.6-30.1 6.8-33.1L722.6 487h-0.2c-0.8 0-1.6 0.3-1.9 0.5-0.8 0.9-8.1 8.7-18.5 16.5-15.4 11.5-29.9 17.4-43.2 17.4-13.4 0-28.1-6-43.6-17.7-10.5-7.9-17.7-15.9-18.6-16.8-0.3-0.2-1.1-0.5-1.9-0.5h-0.2l-51.5 30c1.2 3.1 6.8 17.7 6.8 33 0 45.8-33.9 83.4-76.4 85.7-0.6 3.6-3.9 23.8-3.9 39s3.3 35.4 3.9 39c42.5 2.4 76.4 39.9 76.4 85.7 0 15.4-5.6 30.1-6.8 33.1l48.9 29.1h0.1c0.7 0 1.4-0.3 1.6-0.4 0.9-1 8.2-9.3 18.7-17.5 15.7-12.2 30.6-18.4 44.3-18.4 13.8 0 28.9 6.3 44.6 18.8 10.6 8.4 18 16.7 18.9 17.8" fill="" p-id="5178"></path><path d="M397.9 761.1H201.3c-13.3 0-24.1-18.9-24.1-32.2V210c0-13.3 10.8-24.1 24.1-24.1h489c13.3 0 28.1 10.8 28.1 24.1l4 225.1h32.4v-217c0-35.6-28.9-64.5-64.5-64.5H213.4c-35.6 0-64.5 7.4-64.5 64.5v510.8c0 35.6 28.9 64.5 64.5 64.5h184.5v-32.3z" fill="" p-id="5179"></path><path d="M397.9 761.1H201.3c-13.3 0-24.1-18.9-24.1-32.2V210c0-13.3 10.8-24.1 24.1-24.1h489c13.3 0 28.1 10.8 28.1 24.1l4 225.1h32.4v-217c0-35.6-28.9-64.5-64.5-64.5H213.4c-35.6 0-64.5 7.4-64.5 64.5v510.8c0 35.6 28.9 64.5 64.5 64.5h184.5v-32.3z" fill="" p-id="5180"></path></svg>