<?xml version="1.0" standalone="no"?><!DOCTYPE svg PUBLIC "-//W3C//DTD SVG 1.1//EN" "http://www.w3.org/Graphics/SVG/1.1/DTD/svg11.dtd"><svg t="1560241525042" class="icon" style="" viewBox="0 0 1627 1024" version="1.1" xmlns="http://www.w3.org/2000/svg" p-id="1337" xmlns:xlink="http://www.w3.org/1999/xlink" width="101.6875" height="64"><defs><style type="text/css"></style></defs><path d="M326.75453322 903.5987242h123.67298233c18.53080578 0 30.81753479-12.28672901 30.81753481-30.8175348v-9.26540216l176.24407135 89.63269764c21.55213263 12.28672901 49.54976218 18.53080578 74.12322018 18.53080578 21.55213263 0 40.28435854-3.02132685 61.83649118-12.28672901l442.12084036-179.26539822c12.28672901-6.24407531 21.55213263-18.53080578 18.53080578-34.04028323 0-3.02132685-18.53080578-86.61137225-154.49051714-86.61137227h-188.53080036c-27.79620795-37.0616101-74.12322017-61.83649117-120.6516555-61.83649117h-108.16350489c-43.3056854-55.59241587-126.69430919-92.65402596-201.01895096-92.65402596v-30.81753478c0-18.53080578-12.28672901-30.81753479-30.81753481-30.8175348H326.75453322c-18.53080578 0-30.81753479 12.28672901-30.8175348 30.8175348v401.83648182c0 15.30805586 12.28672901 27.59478635 30.8175348 27.59478636z m315.42653115-259.63269372c6.24407531 9.26540215 15.50947892 12.28672901 24.77488109 12.28672901h123.67298236c34.04028324 0 71.10189332 27.79620795 86.61137223 61.83649117H635.93698907c-18.53080578 0-30.81753479 12.28672901-30.81753478 30.81753479 0 18.53080578 12.28672901 30.81753479 30.81753478 30.8175348H914.30191017c18.53080578 0 30.81753479-12.28672901 30.81753478-30.8175348 0-9.26540215 0-21.55213263-3.02132687-30.81753479h157.7132656c40.28435854 0 61.83649117 9.26540215 74.12322017 18.53080432l-405.05923028 163.75592076c-27.79620795 9.26540215-58.81516432 9.26540215-83.38862234-3.02132685l-204.0402793-105.14217805V563.59873353c61.83649117 0 129.91705765 34.04028324 160.73459244 80.36729695zM357.77348959 501.76224236h61.83649118v339.99999066H357.77348959V501.76224236z m401.83648184-278.16349948" p-id="1338"></path><path d="M892.95119911 677.60346905c-173.22274451 0-310.99525169-137.77250864-310.99525168-310.99525168S719.72845607 55.61296568 892.95119911 55.61296568s310.99525169 137.77250864 310.99525317 310.99525169-137.77250864 310.99525169-310.99525317 310.99525168z m0-577.47628693c-146.63506761 0-266.48103525 120.04739071-266.48103526 266.48103525 0 146.63506761 120.04739071 266.48103525 266.48103526 266.48103527 146.63506761 0 266.48103525-120.04739071 266.48103526-266.48103527 0-146.63506761-119.84596766-266.48103525-266.48103526-266.48103525z m128.90994967 337.58293005h-106.55212919v66.67061386c0 8.86255895-8.86255895 17.72511794-22.15639742 17.72511792s-22.15639742-8.86255895-22.15639887-17.72511792v-66.67061386h-106.55212921c-8.86255895 0-17.72511794-8.86255895-17.72511793-22.15639888s8.86255895-22.15639742 17.72511793-22.15639742h110.98340868v-40.08293695h-71.10189333c-8.86255895 0-17.72511794-8.86255895-17.72511793-22.15639742 0-8.86255895 8.86255895-17.72511794 17.72511793-17.72511793h53.3767754L795.46305048 242.33097025c-8.86255895-4.43127948-4.43127948-13.29383845 8.86255896-22.15639741 8.86255895-8.86255895 22.15639742-13.29383845 26.5876769-4.43127949l62.23933583 66.67061384 62.23933436-66.67061384c4.43127948-8.86255895 17.72511794-4.43127948 26.5876769 4.43127949 8.86255895 8.86255895 13.29383845 17.72511794 8.86255898 26.58767689l-62.44075743 66.46919225h53.37677686c8.86255895 0 17.72511794 8.86255895 17.72511793 22.15639741s-8.86255895 22.15639742-17.72511793 22.15639743h-66.67061532v40.08293693h110.98341016c8.86255895 0 17.72511794 8.86255895 17.72511792 22.15639741-4.22985789 9.06398057-13.09241685 17.92653954-21.95497582 17.92654101z m0 0" p-id="1339"></path><path d="M892.95119911 681.63190535c-84.79857645 0-164.15876249-32.63033059-223.37676999-91.64691652-59.21800751-59.21800751-91.6469165-138.37677343-91.64691798-223.37677146 0-84.79857645 32.63033059-164.15876249 91.64691798-223.37676998C728.79243664 84.21486148 808.15262415 51.5845294 892.95119911 51.5845294s164.15876249 32.63033059 223.37677146 91.64691799c59.21800751 59.21800751 91.6469165 138.37677343 91.64691652 223.37676998 0 84.79857645-32.63033059 164.15876249-91.64691652 223.37677146-59.21800751 59.01658592-138.57819502 91.6469165-223.37677146 91.64691652z m0-621.99050336C720.73556404 59.64140199 585.98438372 194.3925823 585.98438372 366.60821737s134.75118032 306.96681539 306.96681539 306.96681686 306.96681539-134.75118032 306.96681687-306.96681686S1065.16683419 59.64140199 892.95119911 59.64140199z m0 577.47628692c-149.25354979 0-270.50947156-121.45734186-270.50947006-270.50947154 0-149.25354979 121.45734186-270.50947156 270.50947006-270.50947008 149.25354979 0 270.50947156 121.45734186 270.50947155 270.50947008 0 149.25354979-121.25592028 270.50947156-270.50947155 270.50947154z m0-532.96207048c-144.82227031 0-262.45259897 117.83175024-262.45259896 262.45259894 0 144.82227031 117.83175024 262.45259897 262.45259896 262.45259897 144.82227031 0 262.45259897-117.83175024 262.45260043-262.45259897 0-144.82227031-117.63032864-262.45259897-262.45260043-262.45259894z m0 421.97866181c-16.11374371 0-26.18483372-11.27962102-26.18483224-21.75355421v-62.64217904h-102.52369437c-10.47393318 0-21.75355423-10.07109001-21.75355423-26.1848337s11.27962102-26.18483372 21.75355423-26.18483226h106.95497385v-32.0260658h-67.0734585c-10.47393318 0-21.75355423-10.07109001-21.75355423-26.18483373 0-11.27962102 10.67535478-21.75355423 21.75355423-21.75355422h44.51421643l-55.79383747-63.8507086c-4.63270108-2.61848366-5.84123211-6.24407531-6.04265371-8.86255896-0.40284318-7.65402793 7.85544953-14.90521268 14.90521268-19.73933533 7.25118475-7.25118475 16.51658689-11.07819945 23.56635004-10.07109002 4.02843631 0.60426479 7.04976315 2.81990526 9.06398204 6.24407531l58.81516431 63.04502222 58.81516284-63.04502222c2.01421742-3.42417004 5.03554427-5.63981052 9.06398205-6.24407531 7.04976315-1.20853104 16.3151653 2.81990526 23.76777164 10.27251161 11.27962102 11.27962102 14.50236948 21.55213263 9.66824534 31.22037797l-0.2014216 0.60426479-56.19668065 60.22511694h44.11137324c10.47393318 0 21.75355423 10.07109001 21.75355422 26.18483371s-11.27962102 26.18483372-21.75355422 26.1848337h-62.64217902v32.02606585h106.95497385c10.47393318 0 21.75355423 10.07109001 21.75355424 26.18483222v1.00710947l-0.40284319 0.80568782c-5.03554427 9.86966841-14.90521268 19.9407584-25.78199053 19.94075694h-102.52369437v62.64217903c-0.40284318 10.67535478-10.47393318 21.95497581-26.5876769 21.95497582z m-128.9099482-128.90994967c-6.64691997 0-13.69668163 7.04976315-13.69668164 18.12796112 0 11.27962102 7.04976315 18.12796112 13.69668164 18.1279626h110.58056549v70.69905013c0 6.64691997 7.04976315 13.69668163 18.12796114 13.69668163 11.27962102 0 18.12796112-7.04976315 18.12796256-13.69668163v-70.69905013h110.58056551c6.84834155 0 14.30094789-7.45260633 18.12796111-14.70379108-0.40284318-10.67535478-7.25118475-17.32227475-13.69668163-17.32227476h-115.01184499V353.71722359h70.69905015c6.64691997 0 13.69668163-7.04976315 13.69668163-18.12796261 0-11.27962102-7.04976315-18.12796112-13.69668163-18.12796111h-62.64217903l68.08056649-72.9146906c1.81279583-4.02843631 2.61848366-10.47393318-8.4597158-21.55213118-5.43838893-5.43838893-12.48815059-8.66113738-16.71800847-8.05687259-1.61137423 0.2014216-2.61848366 1.00710944-3.42417005 2.61848367l-0.20142159 0.60426478-65.46208426 70.29620696-65.46208283-70.29620696-0.2014216-0.60426478c-0.80568786-1.40995263-1.81279583-2.21564048-3.42417152-2.61848367-4.43127948-0.80568786-11.48104263 2.61848366-16.71800848 8.05687259l-0.60426479 0.60426479c-9.46682374 6.24407531-11.8838858 11.07819945-11.68246421 12.89099526 0 0.80568786 0.80568786 1.61137423 2.4170606 2.41706206l0.80568784 0.4028432 68.48340966 78.35307808h-62.23933436c-6.64691997 0-13.69668163 7.04976315-13.69668164 13.69668163 0 11.27962102 7.04976315 18.12796112 13.69668164 18.12796257h75.13032962v48.13980807h-115.21326656z" p-id="1340"></path></svg>