<?xml version="1.0" standalone="no"?><!DOCTYPE svg PUBLIC "-//W3C//DTD SVG 1.1//EN" "http://www.w3.org/Graphics/SVG/1.1/DTD/svg11.dtd"><svg t="1560678366473" class="icon" style="" viewBox="0 0 1024 1024" version="1.1" xmlns="http://www.w3.org/2000/svg" p-id="3808" xmlns:xlink="http://www.w3.org/1999/xlink" width="64" height="64"><defs><style type="text/css"></style></defs><path d="M888.832 65.536q28.672 0 52.736 10.752t41.984 29.184 28.16 43.52 10.24 53.76l0 620.544q0 28.672-10.24 53.76t-28.16 43.52-41.984 29.184-52.736 10.752l-690.176 0q-28.672 0-53.76-10.752t-43.52-29.184-29.184-43.52-10.752-53.76l0-620.544q0-28.672 10.752-53.76t29.184-43.52 43.52-29.184 53.76-10.752l690.176 0zM826.368 321.536l0 125.952-190.464 0 0 162.816q-1.024 24.576 0 43.008t8.192 30.72 22.528 17.92 43.008 4.608l181.248 0 3.072-67.584-105.472 0q-15.36 1.024-31.232-2.048t-28.16-9.728-19.456-16.384-6.144-24.064l0-73.728 189.44 0 0-254.976-258.048 0 0 63.488 191.488 0zM878.592 833.536q5.12-14.336 9.216-31.744t9.216-32.768l-77.824 0q-51.2 1.024-83.968 1.024l-57.344 0q-23.552 0-41.472-0.512t-37.376-0.512l-54.272 0q-23.552 0-40.96-1.536t-31.232-4.096-27.136-7.68l0-117.76 124.928 0 0-60.416-124.928 0 0-132.096 129.024 0 0-60.416-131.072 0 0-66.56 129.024 0 0-61.44-129.024 0 0-65.536-66.56 0 0 65.536-128 0 0 61.44 128 0 0 66.56-190.464 0 0 60.416 194.56 0 0 290.816q-11.264-9.216-19.456-17.92t-16.384-19.456-15.872-24.576-16.896-33.28q1.024-5.12 2.048-23.04t2.048-37.888 1.536-37.376 0.512-22.528l-63.488-3.072q0 74.752-5.12 120.832t-13.824 74.24-21.504 44.032-28.16 29.184q2.048 4.096 8.192 15.872t14.336 19.968q15.36 12.288 21.504 18.432 12.288-21.504 24.064-35.328t22.016-25.6 17.408-24.064 9.216-29.696q16.384 33.792 43.008 55.296t62.976 33.28 81.92 15.36 98.816 1.536q24.576 1.024 49.152 1.536t56.832 1.024 76.288 0.512l106.496 0z" p-id="3809"></path></svg>