<?xml version="1.0" standalone="no"?><!DOCTYPE svg PUBLIC "-//W3C//DTD SVG 1.1//EN" "http://www.w3.org/Graphics/SVG/1.1/DTD/svg11.dtd"><svg t="1560823544735" class="icon" style="" viewBox="0 0 1024 1024" version="1.1" xmlns="http://www.w3.org/2000/svg" p-id="3643" xmlns:xlink="http://www.w3.org/1999/xlink" width="500" height="500"><defs><style type="text/css"></style></defs><path d="M611.8 775.5l-7.9 8c68.1 10.2 115 31.4 115 55.9 0 34.4-92.6 62.4-206.8 62.4s-206.8-27.9-206.8-62.4c0-24.7 47.6-46 116.5-56.1l-7.9-7.9c-131.3 12.1-226.4 47.7-226.4 89.8 0 52 145.3 94.2 324.6 94.2s324.6-42.2 324.6-94.2c-0.1-41.9-94.5-77.5-224.9-89.7z m0 0" fill="#1296db" p-id="3644"></path><path d="M837.1 388.6C837.1 209.3 691.8 64 512.5 64S187.9 209.3 187.9 388.6c0 89.3 36.1 170.1 94.4 228.8v0.1l231.1 231L743 617.4v-0.1c58.1-58.8 94.1-139.5 94.1-228.7zM519.6 239.8h125.6v118.9h-77.8v50.5c0 9.4 5.1 14.1 15.3 14.1h14.1c8.3 0 13.7-2.3 16.3-6.9 2.6-4.6 4.4-20.1 5.4-46.4 16.9 7.4 30.9 12.9 42 16.5-2.9 24.3-6.1 40.1-9.8 47.5-5.9 17.8-21.5 26.6-46.9 26.6h-36.5c-27.8 0-41.7-14.7-41.7-44.1v-95.3h77.8v-44.1h-83.9v-37.3z m130.5 279.7c-81.6 0-138.6-1-171.2-2.9s-55.9-14.6-70.1-38c-4.3 18.4-10 34.5-17 48.2-7.6-8.4-18.3-19.9-32.2-34.6 13.3-26.5 19.8-64.7 19.6-114.6h39.2c0 17.9-0.7 34.6-2 50.2 5.1 12.8 12.2 23 21.3 30.8v-93.3h-77.2v-37.7h59.7v-28.2h-49.3v-37.7h49.3v-39.2h42v39.2h45.3v37.7h-45.3v28.2h53.9v37.7H478v34h34.3V437H478v38.7c10 1.2 31.2 1.8 63.6 1.8 30.8 0 71.9-0.6 123.3-1.7-5.4 13.4-10.3 27.9-14.8 43.7z" fill="#1296db" p-id="3645"></path></svg>