<?xml version="1.0" standalone="no"?><!DOCTYPE svg PUBLIC "-//W3C//DTD SVG 1.1//EN" "http://www.w3.org/Graphics/SVG/1.1/DTD/svg11.dtd"><svg t="1562145665967" class="icon" viewBox="0 0 1024 1024" version="1.1" xmlns="http://www.w3.org/2000/svg" p-id="19838" xmlns:xlink="http://www.w3.org/1999/xlink" width="500" height="500"><defs><style type="text/css"></style></defs><path d="M64.725205 341.253515c0 0-1.69562 31.344923 30.497625 34.736164 0 0 135.144091-4.705167 168.267523-14.440912 0 0 24.917531-6.345528 25.765853-29.320822l0-88.182476c0 0 9.873891-30.962207 42.147978-29.649303l368.345574-0.437975c0 0 33.122408 2.078337 37.471464 32.602568l0 87.853995c0 0-0.984422 28.391659 30.962207 31.783922l160.527227 11.487647c0 0 25.436348 3.39124 30.57949-32.219851 0 0-2.598177-190.8601-136.89497-233.254695 0 0-123.876456-56.015837-459.56318-33.916495 0 0-221.138737 13.565984-260.771426 124.668495C102.142434 202.908519 69.484607 265.70786 64.725205 341.253515L64.725205 341.253515zM521.909195 855.082677l1.586126-90.370307c0 0 134.15967-4.81466 138.044144-148.629234 0 0 3.39124-133.147619-149.121445-142.940669 0 0-131.889974-11.924599-147.808542 148.902457 0 0-6.728245 82.273901 81.699825 128.116017l-1.886979 104.920713-174.230334 0 0 59.297584c0 0-5.799082 29.868291-45.868723 36.432807 0 0-31.044071 1.641385-46.443822-36.869759l0-57.765693c0 0-39.57743 13.238526-73.986135-21.55392 0 0-18.107421-19.96677-18.544373-37.362993l0-103.006105c0 0 1.69562-25.929582 19.365066-42.012901L365.238813 382.937935l0-62.30713c0 0 15.56348-35.01041 46.525686-32.384604 0 0 36.104325-0.65594 44.911931 35.612115l0 58.587408 112.278292 0.437975 0-65.425147c0 0 18.106398-32.056122 47.181626-29.37608 0 0 35.201768 0.163729 45.103289 34.189718l0 60.829474 258.884447 269.085797c0 0 19.309807 21.717649 19.309807 46.990268l0 91.136764c0 0-1.285274 52.678832-56.782294 64.769207l-35.474991 2.680042 0 52.132386c0 0-1.285274 31.837134-45.868723 40.972198 0 0-36.70603-0.273223-47.099761-38.347415l0.656963-55.414133M429.269193 743.705919c0 0 36.760265 27.68046 106.562097 22.647835l16.411801 89.385886L422.513318 855.73964 429.269193 743.705919 429.269193 743.705919zM437.146612 617.779779c0 0-3.25514 64.331232 76.065496 77.022288 0 0 65.508035 1.257645 75.874137-75.490397 0 0-0.848322-72.974085-75.874137-74.72394C513.12922 544.585683 447.867801 538.403885 437.146612 617.779779L437.146612 617.779779zM437.146612 617.779779" p-id="19839" fill="#3CB371"></path></svg>