<?xml version="1.0" standalone="no"?><!DOCTYPE svg PUBLIC "-//W3C//DTD SVG 1.1//EN" "http://www.w3.org/Graphics/SVG/1.1/DTD/svg11.dtd"><svg t="1562145083765" class="icon" viewBox="0 0 1024 1024" version="1.1" xmlns="http://www.w3.org/2000/svg" p-id="9173" xmlns:xlink="http://www.w3.org/1999/xlink" width="500" height="500"><defs><style type="text/css"></style></defs><path d="M 512 34.027 C 248 34.027 34.027 248 34.027 512 c 0 264 214.08 478.08 478.08 478.08 S 990.08 776.107 990.08 512 c 0 -264 -213.973 -477.973 -478.08 -477.973 Z m 191.467 659.413 c -8.32 10.1333 -20.3733 15.4667 -32.64 15.4667 c -9.38667 0 -18.7733 -3.09333 -26.6667 -9.49333 l -165.333 -135.253 a 41.9627 41.9627 0 0 1 -15.4667 -32.5333 V 334.08 c 0 -23.2533 18.88 -42.1333 42.1333 -42.1333 s 42.1333 18.88 42.1333 42.1333 v 177.493 l 149.973 122.667 c 17.92 14.72 20.5867 41.28 5.86667 59.2 Z" fill="#3cb371" p-id="9174"></path></svg>