<?xml version="1.0" standalone="no"?><!DOCTYPE svg PUBLIC "-//W3C//DTD SVG 1.1//EN" "http://www.w3.org/Graphics/SVG/1.1/DTD/svg11.dtd"><svg t="1559297945075" class="icon" style="" viewBox="0 0 1216 1024" version="1.1" xmlns="http://www.w3.org/2000/svg" p-id="2280" xmlns:xlink="http://www.w3.org/1999/xlink" width="76" height="64"><defs><style type="text/css"></style></defs><path d="M853.333333 298.666667c10.666667 0 21.333333 0 31.573334 1.493333C840.32 128 661.333333 0 448 0 200.533333 0 0 171.946667 0 384a365.226667 365.226667 0 0 0 165.12 298.666667L149.333333 810.666667l137.386667-68.693334A512 512 0 0 0 448 768h17.706667a326.4 326.4 0 0 1-17.706667-106.666667c0-199.893333 181.76-362.666667 405.333333-362.666666zM552.106667 189.44a64 64 0 1 1 0 90.453333 64 64 0 0 1 0-90.453333z m-208.213334 90.453333a64 64 0 1 1 0-90.453333 64 64 0 0 1 0 90.453333z" p-id="2281"></path><path d="M1216 661.333333c0-176.64-162.346667-320-362.666667-320s-362.666667 143.36-362.666666 320 162.346667 320 362.666666 320a404.053333 404.053333 0 0 0 128-21.333333l128 64-28.373333-113.706667A306.773333 306.773333 0 0 0 1216 661.333333z m-442.24-79.573333a53.333333 53.333333 0 1 1 0-75.52 53.333333 53.333333 0 0 1 0 75.52z m256 0a53.333333 53.333333 0 1 1 0-75.52 53.333333 53.333333 0 0 1 0 75.52z" p-id="2282"></path></svg>